<svg xmlns="http://www.w3.org/2000/svg" version="1.1" width="600px" height="600px" viewBox="0 0 200 200" style="overflow:hidden!important;"><defs id="SvgjsDefs2856"></defs><g id="svga-group-wrapper"><g id="svga-group-backs-single"></g><g id="svga-group-humanwrap-move" transform="matrix(1,0,0,1,0,-6)"><g id="svga-group-humanwrap" transform="matrix(1.0000001,0,0,1.0000001,-0.000009953723335343057,-0.000012717287830810164)"><g id="svga-group-hair-back-move" transform="matrix(0.9986295346632303,-0.05233595798588128,0.05233595798588128,0.9986295346632303,-7.451667374275814,5.432313272419748)"><g id="svga-group-hair-back" transform="matrix(1,0,0,1,0,0)"><path id="SvgjsPath9659" d="M85.5 39.3s-26 4.5-33.6 29.6-.6 18.1-3.4 35.8.8 26.5 4.8 30.5c0 0-4.2 8.8 1.1 16.4 0 0-5.1 3.7-2.8 11.3 0 0-6.8 3.4-2.8 14.9 4 11.6 15.8 8.5 18.9 4.2 3.1-4.2 45.2-28.2 49.7-29.6s18.6-9.6 22.3-22.9c0 0 9-11.8 5.9-30.2 0 0 5.1-14.7.9-28.5s-13.3-22-21.2-22.3-34.4-6.2-34.4-6.2l-5.4-3z" fill="#3b3128" stroke-width="none" opacity="1" stroke="none"></path><path id="SvgjsPath9660" d="M57.7 65.3s-6 10.5-6.2 18.1 0 14.7-1.7 22.9 2 15 8.8 19.8c6.8 4.8 9.7 11.5 11.7 15.2s20.9 10.4 16.7-12.8c-1.5-7.9-24.4-54-25.2-57.1s-4.1-6.1-4.1-6.1zm77.6 21.2s7.1 11 6.2 21-2 20.1-7.6 27.2c-5.7 7.1-16.7 10.8-16.7 10.8l8.5-28.9 9.6-30.1z" fill="#332920" stroke-width="none" opacity="1" stroke="none"></path></g></g><g id="svga-group-humanbody-back"><path id="SvgjsPath3116" d="m168.5 219.5-1.7-21.5s.7-9-8.8-15.3-23.4-10.1-29.5-14.2c-6.1-4.1-7.2-4.5-7-16.9s.9-40.3.9-40.3H77.6s.7 27.9.9 40.3c.2 12.4-.9 12.8-7 16.9-6.1 4.1-20 7.9-29.5 14.2S33.2 198 33.2 198l-1.6 21.5h136.9z" fill="#f3d4cf" stroke-width="none" opacity="1" stroke="none"></path></g><g id="svga-group-chinshadow-single"><path id="SvgjsPath3624" d="M100 162.4c3 0 10.5-.8 21.5-6.3v-4.5c.2-12.4.9-40.3.9-40.3H77.6s.7 27.9.9 40.3v4.5c11 5.5 18.5 6.3 21.5 6.3z" fill="#d4958a" stroke-width="none" opacity="1" stroke="none"></path></g><g id="svga-group-humanbody-front"><path id="SvgjsPath3117" d="M166.3 193.3c-.2-.7-.5-1.5-.8-2.2-.2-.3-.3-.7-.5-1.1l-.6-1c-.1-.2-.2-.3-.3-.5l-.3-.5-.3-.5c-.1-.2-.2-.3-.4-.5l-.7-.9-.8-.8-.4-.4-.4-.4-.9-.8c-.1-.1-.3-.2-.5-.4l-.5-.3-.9-.7-1.2-.8-.6-.4-.6-.4-1.3-.7-1.3-.7c-.8-.5-1.7-.9-2.6-1.3-.9-.4-1.7-.8-2.6-1.2-3.5-1.6-7.1-3.1-10.6-4.6-1.8-.8-3.5-1.6-5.2-2.4l-.6-.3-.6-.4c-.4-.2-.8-.5-1.2-.7-.8-.5-1.6-1.1-2.4-1.6-.4-.3-.8-.6-1.2-.8-.2-.1-.4-.3-.5-.4-.2-.1-.4-.3-.5-.5-.7-.6-1.2-1.3-1.6-2.1l-.1-.1-.1-.2-.1-.3-.1-.3c0-.1-.1-.2-.1-.3l-.2-.7-.1-.7c-.1-.9-.2-1.9-.2-2.8-.1-3.8.1-7.7.3-11.5l.4-11.6c.2-7.7.4-15.5.5-23.2v-1.1h-1.1c-3.7 0-7.5 0-11.2.1l-11.2.1-22.4.3h-.5v.5c.3 9.3.6 18.5.7 27.8.1 4.6.2 9.3.2 13.9 0 2.3 0 4.6-.3 6.9-.2 1.1-.4 2.2-.9 3.2s-1.2 1.8-2.1 2.5-1.8 1.3-2.8 2l-.7.5c-.2.2-.5.3-.7.4-.5.3-1 .6-1.5.8-2 1-4.2 1.9-6.3 2.8-4.3 1.7-8.6 3.4-12.9 5.3-2.1 1-4.2 2-6.3 3.2-2 1.2-4.1 2.6-5.8 4.3s-3.2 3.8-4.2 6c-.5 1.1-.9 2.3-1.1 3.5-.1.3-.1.6-.2.9-.1.3-.1.6-.1.9 0 .3-2 23.9-2 23.9H169s-2.2-25.2-2.7-26.7zM33.2 218.8c0-.2 1.2-22.4 1.2-22.5 0-.3.1-.5.1-.8s.1-.5.1-.8c.2-1.1.6-2.1 1-3.1.9-2 2.1-3.8 3.6-5.4 1.5-1.6 3.4-2.8 5.3-4 1.9-1.2 4-2.2 6-3.3 4.1-2 8.4-3.8 12.7-5.6 2.1-.9 4.3-1.9 6.3-3l1.5-.9c.3-.2.5-.3.8-.5l.7-.5c1-.7 1.9-1.3 2.9-2.1.2-.2.4-.4.7-.6.2-.2.4-.5.6-.7s.4-.5.5-.8c.2-.3.3-.5.5-.8.5-1.1.8-2.3.9-3.5.3-2.4.2-4.7.2-7l-.2-13.9c-.2-9.1-.4-18.2-.5-27.3l21.9.3 11.2.1c3.4 0 6.7.1 10.1.1-.2 7.4-.4 14.7-.5 22.1l-.1 11.6v5.8c0 1.9 0 3.9.2 5.9.1 1 .2 2 .4 3l.2.7c.1.2.1.5.2.7 0 .1.1.2.1.4l.1.4.2.4.1.2.1.2c.5.9 1.2 1.7 1.9 2.4.2.2.4.3.6.5.2.1.4.3.6.4.4.3.8.6 1.2.8.8.5 1.6 1.1 2.5 1.6.4.3.9.5 1.3.7l.7.3.7.3c1.8.8 3.6 1.6 5.3 2.3 3.6 1.4 7.2 2.9 10.7 4.4 3.5 1.6 7 3.3 10.2 5.4l.9.7.5.3c.2.1.3.2.4.4l.9.8c.1.1.3.2.4.4l.4.4.8.8.7.9c.1.2.2.3.3.5l.3.5.3.5c.1.2.2.3.3.5.8 1.3 1.4 2.7 1.8 4.2.2.7.3 1.5.5 2.2.1.7 1.8 22.6 1.8 23.2-11.2-.2-135.1-.2-135.1-.2z" fill="#c5796d" stroke-width="none" opacity="1" stroke="none"></path><path id="SvgjsPath3118" d="M73.8 175.9c5.1 2.9 11.8 5.2 17.6 5.7.4 0 .4-.6.1-.7-2.8-1.1-5.9-1.7-8.8-2.6-2.9-.9-5.8-2-8.8-2.7-.1-.1-.3.2-.1.3z" fill="#d4958a" stroke-width="none" opacity="1" stroke="none"></path><path id="SvgjsPath3119" d="M109 182.1c5.3-.6 11.3-3 15.9-5.8.3-.2.1-.6-.2-.5-2.6.9-5.2 2-7.8 2.9-2.6.9-5.4 1.5-8 2.5-.5.1-.5.9.1.9z" fill="#d4958a" stroke-width="none" opacity="1" stroke="none"></path></g><g id="svga-group-clothes-single"><path id="SvgjsPath9923" d="M163.5 187.5s-9.4 9.9-64.1 11.4c-52.2 1.4-63.4-12-63.4-12s-5.7 7.5-7.8 10.1-3.4 4.1-3.4 4.1 1.2 3.1 3.2 3.4 2-1.1 3.8-.3 3.8 3.1 3.4 4.1c-.5 1.1.2 2.8 1.8 3.5 1.7.8 5.7 2.9 6.3 1.8s3.1-1.2 2.8.1c-.3 1.4 2.3 2.9 3.4 3.2 1.1.3 3.3-2.1 4.4-2.7.7-.4 2.2-.2 3.4.2v5.4h86.1l-.1-3.1c4-.4 9.4-.8 10.7-1.6 1.8-1.1 2.8-4.6 4.5-3.4s4.9 1.2 6.7.3.3-2.6.6-4c0 0-.4-1.8 2.3-2.1s5.9-4.2 5.9-4.2l-10.5-14.2z" fill="#09aac5" stroke-width="none" opacity="1"></path><path id="SvgjsPath9924" d="M174.6 201.5 164.2 187l-.1-.1c-.3-.4-.9-.4-1.3-.1l-.1.1c-.1.1-.4.4-.7.5-.2.2-.5.4-.8.5-.6.3-1.1.6-1.7.9-1.2.6-2.4 1.1-3.7 1.5-1.2.5-2.6.8-3.9 1.2-1.3.4-2.6.7-3.9 1-5.3 1.3-10.7 2.1-16.1 2.9-10.8 1.4-21.7 2-32.7 2.4-10.9.4-21.9.2-32.7-1.1-5.4-.6-10.8-1.6-16-3.1-2.6-.7-5.2-1.6-7.7-2.7-1.2-.6-2.5-1.1-3.6-1.9-.6-.4-1.2-.7-1.7-1.1-.3-.2-.5-.4-.8-.6-.1-.1-.3-.2-.4-.3l-.2-.2-.1-.1s0-.1-.2-.1c-.2.1-.2.2-.2.3l-.2.2-.3.4-.7.9-1.4 1.8-2.8 3.5c-1.9 2.4-3.9 4.6-5.8 7-.1.1-.1.3-.1.5.4.9.8 1.6 1.4 2.4.3.4.7.7 1.1 1 .4.3 1 .4 1.5.4s1.1-.1 1.5-.2c.5-.2.7-.3 1-.3.6 0 1.4.5 2 1 .6.5 1.2 1.1 1.5 1.8.2.3.3.7.2.8v.1l-.1.2c0 .1-.1.3-.1.4v.9c.2 1.1.9 2 1.7 2.6.2.1.5.3.7.4l.6.3 1.2.6c.8.4 1.6.7 2.5 1 .5.1.9.3 1.5.3.3 0 .7 0 1.1-.3.2-.1.4-.5.4-.4 0 0 0-.1.1-.1.2-.1.5-.3.8-.3h.4c-.1.4 0 .8.1 1.1.2.6.6 1 1 1.4.7.7 1.5 1.2 2.4 1.6.1.1.2.1.4.1H49.8c.4 0 .7-.1.9-.2.5-.2.9-.5 1.2-.8.7-.6 1.4-1.1 2-1.6.2-.1.3-.2.3-.2.1 0 .3-.1.4-.1.3 0 .7 0 1.1.1.3.1.7.1 1.1.3-.1 1.5-.1 3-.2 4.6 0 .3.2.5.5.5l10.8.2 10.8.1c7.2.1 14.3.1 21.5-.1 7.2-.1 14.3-.4 21.5-.4 7.2 0 14.4.1 21.5.2.3 0 .5-.2.5-.5v-2.7c2.3-.2 4.6-.4 6.9-.7.9-.1 1.7-.2 2.6-.5.4-.1 1-.4 1.3-.7.4-.3.7-.7 1-1 .6-.7 1.1-1.5 1.6-1.9.3-.2.5-.3.6-.2.1 0 .1.1.2.1l.3.2c.2.1.4.2.6.4 1.8.8 3.7.8 5.6.3.5-.2.9-.3 1.4-.7.5-.4.8-1.1.8-1.7 0-.6-.1-1-.2-1.4-.1-.4-.1-.8-.1-1V208c0-.1.1-.2.2-.3.2-.2.5-.4.8-.4.2-.1.4-.1.6-.1.2 0 .5-.1.8-.1.5-.2 1-.4 1.4-.6.9-.5 1.6-1.1 2.3-1.7.7-.6 1.4-1.3 2-2 .4-.6.5-1 .2-1.3zm-116.9 18c0-1.3-.1-2.5-.2-3.8.1.1.3.1.4.2l.3.3.4.5c.1.2.3.4.6.6.3.2.5.4.8.4.4.1.6.2.8.2l.7.1c.5.1.9.1 1.3.2.9.1 1.8.2 2.7.2h1.4c.5-.1.9-.1 1.6-.3.2-.1.4-.2.6-.5l.2-.3c.1-.2.2-.4.3-.5.2-.3.5-.6.6-.6.1-.2 1.1.1 1.7.4.4.2.7.4 1 .6.2.1.3.2.4.3l.2.2.1.1.1.1.1.1c.3.2.6.3.8.4.2.1.5.2.7.2.4.1.9.2 1.3.3.4.1.8.1 1.2.2l-10 .1-10.1.3zm25.5-1.8c.1 0 .1 0 0 0zm.5 1.4c.3-.1.6-.2.9-.8l.1-.3c0-.1.1-.1.1-.2.3-.4.9-.7 1.7-.8h.6c.1 0 .2 0 .4.1.3.1.6.4.9.6.3.3.7.6 1.2.9.2.1.5.2.8.3.2.1.5.1.7.1.2 0 .4.1.7.1h-8.1zm59.1.4c-7 .1-14 .2-20.9.2-6.5 0-13-.2-19.5-.4.2-.1.6-.3.7-.4.3-.3.7-.5 1-.7 1.4-.9 3.1-1.5 4.6-1.2.7.2 1.5.7 2.3 1.1.8.4 1.6.8 2.5 1 .5.1.9.1 1.4 0 .4-.1.9-.2 1.4-.5.9-.6 1.2-1.5 1.7-2.1.3-.3.4-.4.7-.3.3.1.6.4 1 .7.7.5 1.5 1 2.3 1.3.8.4 1.7.6 2.6.7.9.1 1.8 0 2.7-.1.9-.1 1.8-.3 2.6-.5.9-.3 1.7-.5 2.5-1.1.7-.7 1.2-1.3 1.8-1.8.3-.2.7-.5 1-.5.3-.1.6.1.8.4.2.3.4.7.6 1.1.2.4.4.9.8 1.2 1 .7 2 .3 2.8.2.8-.1 1.6-.2 2.4-.2l.2 1.9zm28.7-16.2c-.6.6-1.3 1.1-2 1.5-.4.2-.7.4-1.1.5-.2.1-.3.1-.6.1h-.2c-.8-1.5-1.6-2.9-2.6-4.3-1.2-1.7-2.4-3.4-3.9-4.9.9 2 2 3.7 3.1 5.5.9 1.3 1.9 2.6 3 3.9h-.2c-.5.2-1.1.4-1.5.9-.4.5-.6 1.1-.5 1.7-.1 1.2.4 2 .3 2.6 0 .3-.1.4-.2.6-.2.2-.6.3-.9.5-1.5.5-3.3.5-4.7-.1-.2-.1-.4-.2-.5-.2l-.3-.2c-.1-.1-.2-.1-.4-.2-.9-2.5-1.9-4.9-3-7.2-1.3-2.7-2.6-5.3-4.3-7.8.9 2.9 2.1 5.6 3.4 8.2 1.1 2.3 2.3 4.5 3.6 6.7h-.7c-.3.1-.6.3-.8.4-.8.7-1.2 1.4-1.7 2.1-.3.3-.5.6-.8.9-.3.3-.6.4-1 .5-.8.2-1.6.4-2.5.5-3.4.5-6.9.8-10.4 1.2-.4.1-.9.1-1.3.2-.4 0-.8 0-1-.2-.4-.3-.6-1.1-1-1.7-.4-2.3-.9-4.5-1.5-6.8-.8-2.7-1.6-5.4-2.8-8.1.4 2.8 1.1 5.6 1.8 8.3.5 1.9 1.1 3.8 1.8 5.7-.1-.1-.1-.1-.2-.1-.3-.1-.6-.1-.8-.1-.5.1-.9.4-1.3.7-.7.6-1.3 1.3-1.9 1.9-.6.5-1.4.8-2.2 1-.8.2-1.7.4-2.5.5-.8.1-1.7.2-2.5.1s-1.7-.3-2.4-.7c-.8-.3-1.5-.8-2.2-1.3l-.5-.4c-.2-.1-.4-.3-.6-.4h-.1c0-2.3-.3-4.5-.6-6.7-.4-2.4-.9-4.8-1.6-7.1 0 2.4.3 4.9.7 7.2.4 2.2.8 4.4 1.5 6.5-.2 0-.4 0-.7.1-.3.1-.5.3-.6.5-.6.8-.9 1.5-1.5 1.9-.3.2-.7.3-1.1.4-.4.1-.8.1-1.2 0-.8-.1-1.6-.5-2.3-.9l-1.1-.6c-.4-.2-.8-.5-1.3-.6-.9-.3-1.9-.1-2.8.1-.9.2-1.7.6-2.5 1.1l-.9.6c.2-1.5.1-2.9.1-4.4-.1-1.8-.3-3.6-.8-5.4-.3 1.8-.3 3.6-.2 5.4.1 1.5.2 3.1.6 4.6-.1.1-.2.1-.3.2-.2.1-.3.1-.6.1-.8.1-1.7.1-2.5.1-1.7-.1-3.4-.2-5.2-.4-.9-.1-1.7-.2-2.6-.4-.2 0-.4-.1-.6-.1-.2-.1-.3-.1-.4-.2-.3-.2-.6-.4-.9-.7s-.7-.6-1.2-.9c-.3-.1-.6-.2-.9-.2h-.7c-.5 0-1 .1-1.5.3-.3.1-.7.3-1 .6.1-.7.2-1.3.2-2l.3-3.9c.1-2.6.2-5.3 0-7.9-.6 2.6-.8 5.2-.9 7.9-.1 1.3-.1 2.6-.1 4 0 .8 0 1.7.1 2.5-.1.1-.1.2-.2.3 0 .1-.1.1-.1.2h-.1c-.3.1-.7.1-1.1.1-.8 0-1.7 0-2.5-.1s-1.7-.2-2.5-.4l-1.2-.3c-.4-.1-.8-.3-.9-.4l-.1-.1-.3-.3c-.2-.2-.4-.3-.6-.5-.4-.3-.8-.5-1.2-.7-.4-.2-.9-.4-1.4-.5-.3-.1-.5-.1-.9-.1s-.7.1-1 .2c-.4.2-.6.4-.9.7.3-1.2.6-2.4.8-3.6.3-2 .6-4.1.5-6.1-.7 1.9-1.2 4-1.5 6-.2 1-.3 2-.4 3.1 0 .6-.1 1.1-.1 1.6l-.1.1-.1.2c-.2.1-.6.1-.9.1h-1.2c-.8 0-1.7-.1-2.5-.2-.4 0-.8-.1-1.3-.1l-.6-.1c-.2 0-.4-.1-.5-.1-.3-.1-.4-.2-.7-.5l-.4-.5c-.1-.1-.4-.5-.7-.6-1-.6-1.8-.8-2.8-1-.5-.1-1-.1-1.5-.1-.3 0-.5.1-.8.2.8-1.9 1.5-3.9 2.1-5.9.8-2.8 1.6-5.5 2.1-8.4-1.2 2.6-2.2 5.4-3 8.1-.7 2.1-1.3 4.3-1.7 6.5-.1 0-.1.1-.2.1-.8.6-1.4 1.1-2 1.6-.3.2-.7.5-1 .6-.1.1-.3.1-.3.1-.1 0-.2-.1-.2-.1-.7-.3-1.4-.7-2-1.2-.3-.2-.5-.5-.5-.7v-.2c.1-.3.1-.8-.2-1.3-.3-.4-.7-.6-1-.6-.3-.1-.6-.1-.9 0-.6.1-1.1.3-1.6.7l-.4.4h-.1c-.3 0-.7-.1-1.1-.2-.8-.2-1.6-.6-2.3-.9l-1.2-.5-.6-.3c-.2-.1-.3-.1-.5-.2-.6-.4-1-1-1.2-1.6v-.7l.1-.3v-.6c1.3-1.9 2.5-3.8 3.6-5.8 1.4-2.5 2.7-5.1 3.8-7.8-1.8 2.3-3.2 4.8-4.7 7.3-1 1.9-2 3.7-2.9 5.7-.1-.2-.2-.4-.2-.5-.5-.9-1.2-1.5-1.9-2.1-.8-.6-1.5-1.1-2.7-1.2-.6 0-1.1.3-1.5.4-.4.1-.7.2-1 .2-1.3 0-2.4-1.4-3.1-2.8l5.4-6.9 2.7-3.7 1.3-1.8.7-.9.3-.5.2-.2c0-.1.1-.1.1-.1l.1.1.2.2.4.4c.3.2.5.4.8.7.5.4 1.1.8 1.7 1.2 1.2.8 2.4 1.4 3.6 2 2.5 1.2 5.1 2.2 7.7 3 5.3 1.7 10.7 2.7 16.1 3.6 5.4.8 10.9 1.2 16.4 1.5 5.5.2 11 .3 16.5.2 11-.3 22-.9 32.9-2.3 5.5-.7 10.9-1.6 16.3-3 1.3-.4 2.7-.7 4-1.1 1.3-.4 2.7-.8 4-1.3 1.3-.5 2.6-1 3.9-1.6.6-.3 1.3-.6 1.9-1l.9-.6s.1 0 .1-.1l9.6 13.1c-1 .2-1.5.7-2 1.1z" fill="#008fa6" stroke-width="none" opacity="1"></path><path id="SvgjsPath9925" d="M170.6 200.7c-.9-1.8-2.4-3.3-3.6-4.9-1.2-1.6-2.4-3.3-3.5-4.9-.1-.2-.4 0-.3.2 1.9 3.4 3.9 7.5 6.9 10.1.3.2.7-.1.5-.5zm-19.5-1.4c-.1-.2-.5 0-.4.2 1.5 3.4 2.7 7.2 4.6 10.4-1.5.1-2.4 2-3.8 2.7-3 1.7-7 1.5-10.2 2.7-.3.1-.2.5.1.5 2.9 0 5.9-.6 8.7-1.2.9-.2 1.8-.4 2.6-.9 1.4-.9 1.7-2.4 3.4-2.9.3 0 .5-.3.4-.6-1-3.8-3.4-7.5-5.4-10.9zm13.7 6.8c-1.1-.1-1.9 1.1-1.8 2.1 0 .7.6 1.2.7 1.9.2 1.2-1.3 1.2-1.9 1-.5-.1-1.1-.4-1.5-.7-.2-.1-.4.2-.2.3 1.1.9 2.9 1.9 4.1.5.4-.5.5-1.1.3-1.7-.1-.5-.5-1-.5-1.5 0-.6.6-1.1 1.1-1.5 0 0-.1-.3-.3-.4zm-30.1 6.4c-1-4.3-2.5-8.5-3.6-12.7-.1-.2-.4-.2-.4.1.5 4.4 1.4 9 3.2 13 .2.5.9.1.8-.4zm.3.9c-1.5-.2-2.6.5-3.8 1.4-2.8 2.1-5.6 3-8.9 1.2-.1-.1-.3.1-.2.2 1.6 1.3 3.3 1.9 5.4 1.6 2.9-.4 4.6-2.9 7.4-3.6.5-.2.5-.8.1-.8zM115.3 203c-.1-.3-.6-.3-.6.1.2 2 .5 4 .8 6 .3 2 .4 4.1 1.2 5.9.1.3.6.1.6-.2.2-1.9-.4-3.8-.8-5.6-.3-2-.6-4.2-1.2-6.2zm0 12.6c-2.4.9-4.2-1.2-6.4-1.5-1.9-.2-3.4.4-4.8 1.6-.2.2.1.5.3.4 1.3-.9 3.1-1.4 4.8-1.1 1.3.3 2.3 1.3 3.6 1.7 1.2.4 2.2.4 3-.6.1-.3-.2-.6-.5-.5zm-14.5.9c-1.3-.4-2.2-.2-3.5-.1-3.1.4-4.2-.4-6.7-1.6-1.8-.9-3.5-1.2-5.1.1-.2.1.1.4.2.3 3.2-1.4 5.2 1.3 7.9 2.1 2.3.7 4.5-.7 6.8 0 .7.3 1-.6.4-.8zm-18.5-.6c-4.3 1.2-7.2-4.1-11.3-2.9-.3.1-.3.5 0 .6 2.5.7 4.6 2 7 2.9 1.6.6 3.1.7 4.6 0 .4-.2.1-.7-.3-.6zm-17.4-1.4c-.4-.1-.8.1-1.2 0-1.7-.2-1.6-.8-2.6-1.6-1.6-1.3-3.5-1.3-5.5-.9 1.9-3.7 3.9-8.6 3.8-12.9 0-.3-.4-.4-.5-.1-.9 1.9-1.3 4-1.8 6.1-.7 2.3-1.4 4.6-2 6.9v.2c-.1.1 0 .3.1.3 1.3.1 2.8 0 4 .5 1.1.5 1.5 1.4 2.4 2.1 1.3 1 2.8.1 4.1.9.3.2.8-.2.6-.6-.3-.6-.7-.8-1.4-.9zm-19.4-19.1c.2-.4-.5-.6-.7-.3-3.1 4.3-5.8 9.1-8.8 13.5-.2.3.3.7.5.4 3.6-3.9 7.1-8.7 9-13.6zm5.6 18.3c-1.2.1-2-2.5-2.8-3.2-.6-.5-1.3-.8-2.1-.9-.5 0-.8 0-1.2.1 2.3-3.1 4.5-6.6 5.6-10.2.1-.3-.3-.4-.5-.2-2.4 3.4-4.3 7.3-6.4 10.9-.2.1-.4.2-.6.2-.5.6-1 .7-1.7.3-.7 0-1.4-.2-1.9-.6-.8-.4-1.7-.9-2.5-1.4-.3-.2-.8.3-.4.6 2 1.9 4.3 3.6 6.9 2.5 3.3-1.4 3.1-1.3 5.2 1.3.4.5.3.8.9 1.2.7.5 1.1.4 1.8 0 .2 0 .1-.6-.3-.6zm-14.8-9.6c-.4-1.2-1.6-2-2.8-2.4-.7-.2-1.4-.3-2.1-.2-.7.1-5.1 1.4-4.1-.9.1-.3-.3-.6-.5-.3-.8 1.2 0 2.4 1.3 2.7 1.2.3 2.3-.4 3.5-.5 1.7-.1 2.7 1 3.8 2 .5.4 1.1.1.9-.4zm68.3 9.9c.2-3.3-.3-6.7-1.2-9.9-.1-.3-.6-.3-.6.1.3 3.3.6 6.7 1.3 9.9.1.2.5.1.5-.1z" fill="#1fbad4" stroke-width="none" opacity="1"></path></g><g id="svga-group-head" transform="matrix(0.9986295346632303,-0.05233595798588128,0.05233595798588128,0.9986295346632303,-7.451667374275814,5.432313272419748)"><g id="svga-group-ears-left-move" transform="matrix(1,0,0,1,0,1)"><g id="svga-group-ears-left" transform="matrix(0.9499999,0,0,0.9499999,2.9465683740514734,5.1176038097110705)"><path id="SvgjsPath10571" d="M65.3 102.4s-1.6-4.3-3.2-7-4-6.4-5.5-7.4-2.6-.5-2.2 2c.5 2.5 2.3 10.7 2.8 13.2s1.7 7.9 3.2 11.5c1.5 3.5 2.3 5.2 3.7.5 1.5-4.7 2.3-9.8 1.2-12.8z" fill="#f3d4cf" stroke-width="none" opacity="1"></path><path id="SvgjsPath10572" d="M69.1 106.8c0 1.5-.8 6.7-2.1 10-1.2 1.1-4.4 2-4.5 2s-.2 0-.3-.1c-.4-.2-.7-.6-.9-.9s-.4-.7-.5-1c-.3-.7-.6-1.3-.9-2-.5-1.4-1-2.8-1.4-4.3-.8-2.9-1.4-5.9-1.9-8.8-.6-2.9-1.1-5.9-1.8-8.8l-.5-2.2c-.2-.7-.4-1.5-.2-2.4.1-.4.3-.9.5-1.1.3-.2.6-.3.9-.2.6.1 6.4.8 6.9 1.2 3.2 1.3 6.8 8 6.7 18.6zm-7.6-11.9c-.7-1.1-1.5-2.2-2.3-3.3-.8-1.1-1.5-2.1-2.4-2.9-.4-.4-.9-.7-1.3-.8-.4-.1-.8.1-.9.6-.1.6 0 1.3.1 2s.3 1.5.4 2.2c.6 2.9 1.3 5.8 2 8.7.7 2.9 1.4 5.8 2.2 8.6.4 1.4.9 2.8 1.4 4.1.3.6.5 1.3.8 1.9.1.3.3.6.4.8.1.2.3.4.4.5.1 0 .1 0 .3-.1.1-.1.1-.1.2-.3.1-.1.1-.2.2-.4.3-.5.5-1.2.7-1.8.4-1.3.8-2.6 1.1-3.9.3-1.3.6-2.7.8-4.1.1-1.4.1-3-.4-4.3-1-2.7-2.2-5.3-3.7-7.5z" fill="#e4b3ab" stroke-width="none" opacity="1"></path><path id="SvgjsPath10573" d="M55.1 90.7c3 3.3 5.4 8.9 5.8 14.1 0 .4-.3.4-.4.1-.1-.5-.2-1-.3-1.4-.3-.7-.7-.8-1.3-.2 0 .4.1.8.2 1.2.1.5.3 1.1.5 1.6.5 1.2 1.1 2.2 1.7 3.3.1.2 0 .6-.2.4-1.4-1.2-2.9-4.5-2.8-6.8 0-.7.2-1.4.8-1.4.3 0 .6.1.8.4-1.1-4.1-2.5-7.5-4.9-10.9-.2-.3-.1-.6.1-.4z" fill="#d4958a" stroke-width="none" opacity="1"></path></g></g><g id="svga-group-ears-right-move" transform="matrix(1,0,0,1,0,1)"><g id="svga-group-ears-right" transform="matrix(0.9499999,0,0,0.9499999,7.0545268958908025,5.111586112739175)"><path id="SvgjsPath10574" d="M134.7 102.4s1.6-4.3 3.2-7 4-6.4 5.5-7.4 2.6-.4 2.1 2.1-2.3 10.7-2.8 13.2-1.7 7.9-3.2 11.5c-1.5 3.5-2.3 5.2-3.7.5-1.4-4.8-2.2-9.9-1.1-12.9z" fill="#f3d4cf" stroke-width="none" opacity="1"></path><path id="SvgjsPath10575" d="M137.6 88.2c.5-.4 6.3-1.1 6.9-1.2.3 0 .6 0 .9.2.3.2.5.6.5 1.1.1.9-.1 1.7-.2 2.4l-.5 2.2c-.7 2.9-1.2 5.8-1.8 8.8-.5 2.9-1.1 5.9-1.9 8.8-.4 1.4-.8 2.9-1.4 4.3-.3.7-.5 1.4-.9 2-.2.3-.3.7-.5 1s-.5.7-.9.9c-.1 0-.2.1-.3.1s-3.3-.9-4.5-2c-1.3-3.3-2-8.5-2.1-10-.1-10.6 3.5-17.3 6.7-18.6zm-2.9 14.2c-.5 1.4-.5 2.9-.4 4.3s.4 2.8.8 4.1c.3 1.3.7 2.6 1.1 3.9.2.6.4 1.3.7 1.8.1.1.1.3.2.4.1.1.1.2.2.3.1.1.2.2.3.1s.2-.2.4-.5c.2-.2.3-.5.4-.8.3-.6.6-1.3.8-1.9.5-1.3 1-2.7 1.4-4.1.8-2.8 1.5-5.7 2.2-8.6s1.4-5.8 2-8.7c.1-.7.3-1.5.4-2.2.1-.7.2-1.5.1-2-.1-.6-.5-.7-.9-.6s-.9.4-1.3.8c-.8.8-1.6 1.9-2.4 2.9-.8 1.1-1.5 2.2-2.3 3.3-1.4 2.2-2.6 4.8-3.7 7.5z" fill="#e4b3ab" stroke-width="none" opacity="1"></path><path id="SvgjsPath10576" d="M144.9 90.7c-3 3.3-5.4 8.9-5.8 14.1 0 .4.3.4.4.1.1-.5.2-1 .3-1.4.3-.7.7-.8 1.3-.2 0 .4-.1.8-.2 1.2-.1.5-.3 1.1-.5 1.6-.5 1.2-1.1 2.2-1.7 3.3-.1.2 0 .6.2.4 1.4-1.2 2.9-4.5 2.8-6.8 0-.7-.2-1.4-.8-1.4-.3 0-.6.1-.8.4 1.1-4.1 2.5-7.5 4.9-10.9.2-.3.1-.6-.1-.4z" fill="#d4958a" stroke-width="none" opacity="1"></path></g></g><g id="svga-group-faceshape-wrap" transform="matrix(1,0,0,1,0,0)"><g id="svga-group-faceshape-single"><path id="SvgjsPath3614" d="M100.01 40.83c-21.4 0-39.8 15.6-41 44.1 0 0 .1 15.8 2.5 28.3 2.3 12.6 3.5 24.2 15.4 30.5 11.9 6.4 20 7.2 23.2 7.2 3.1 0 11.2-.9 23.2-7.2s13.1-18 15.4-30.5c2.3-12.6 2.5-28.3 2.5-28.3-1.4-28.4-19.8-44.1-41.2-44.1z" fill="#f3d4cf" stroke-width="none" opacity="1" stroke="none"></path><path id="SvgjsPath3615" d="M100 41.3c-21.4 0-39.8 15.6-41 44.1 0 0 .1 15.8 2.5 28.3s3.5 24.2 15.4 30.5c11.9 6.4 20 7.2 23.2 7.2 3.1 0 11.2-.9 23.2-7.2 11.9-6.4 13.1-18 15.4-30.5 2.3-12.6 2.5-28.3 2.5-28.3-1.4-28.4-19.8-44.1-41.2-44.1zm35.5 26.9.7 2.2c.1.4.6 2.2.6 2.2.1.4.9 4.5.9 4.5.1.4.3 2.4.3 2.4 0 .4.1.8.1 1.2l.2 2.4.2 2.7v.6c-.1 3.2-.3 6.4-.5 9.6s-.5 6.4-.9 9.6c-.2 1.6-.4 3.2-.6 4.7-.1.8-.2 1.6-.4 2.3-.1.8-.3 1.6-.4 2.4-.5 3.2-1 6.4-1.7 9.4-.7 3.1-1.6 6-2.9 8.7-1.3 2.7-3.1 5-5.4 6.9-1.1.9-6.21 4.62-11.3 6.42-1.5.6-3.8 1.38-5.3 1.78-1.5.5-3 .9-4.5 1.2s-3.1.6-4.6.6-3.1-.1-4.6-.3c-1.6-.2-3.1-.5-4.7-.9-3.1-.8-6.1-1.9-9.1-3.2-.7-.3-1.5-.7-2.2-1-.7-.4-1.4-.7-2.2-1.1-1.4-.7-2.7-1.6-4-2.6-2.5-2-4.4-4.5-5.8-7.3s-2.3-5.9-2.9-9-1.1-6.3-1.5-9.6c-.2-1.6-.5-3.2-.6-4.8-.2-1.6-.3-3.2-.5-4.8-.2-3.2-.4-6.4-.5-9.6 0-.8-.1-1.6-.1-2.4l-.1-2.4c0-1.6-.1-3.2-.1-4.8l.1-2.2.1-1.1.1-1.2s.2-2 .3-2.4c0 0 .3-2 .4-2.4 1.1-6.1 3-12.2 6.2-17.5 1.6-2.7 3.5-5.2 5.7-7.4s4.8-4.2 7.5-5.8c1.4-.8 2.8-1.5 4.3-2.1s3-1.1 4.6-1.5l1.8-.4.6-.1 1.2-.2c3.5-.51 9.2-.4 10.8-.2.4.1.8.1 1.2.2l1.2.2.6.1 1.8.4c1.5.4 3.1.9 4.6 1.5s2.9 1.3 4.3 2.1c2.8 1.6 5.3 3.6 7.5 5.8 2.2 2.2 4.1 4.8 5.7 7.4 1.6 2.9 2.8 5.8 3.8 8.8z" fill="#c5796d" stroke-width="none" opacity="1" stroke="none"></path></g></g><g id="svga-group-mouth-single-move" transform="matrix(1,0,0,1,0,3)"><g id="svga-group-mouth-single" transform="matrix(0.9999999,0,0,0.9999999,0.00000998422660813958,0.000012870370085238392)"><path id="SvgjsPath4435" d="M84.5 124.5c.2 0 5.6 6.5 8.5 8 2.9 1.4 9 2 12.5.7s9.5-9.1 9.5-9.1-6.4 1.8-9.9 2.2c-3.5.4-11.7-.2-15-.7s-5.6-1.1-5.6-1.1z" fill="#000000" stroke-width="none" opacity="1"></path><path id="SvgjsPath4436" d="M90 125.6c-3.3-.5-5.5-1.1-5.5-1.1.1 0 1.7 1.9 3.6 3.8 2.2.9 5.1 2 7.5 2.4 4.6.7 10.4.2 15.2-2.1.3-.1.6-.3.8-.4 1.9-2.1 3.4-4 3.4-4s-6.4 1.8-9.9 2.2c-3.6.3-11.8-.3-15.1-.8z" fill="#ffffff" stroke-width="none" opacity="1"></path><path id="SvgjsPath4437" d="M116.9 123.3c-.1-.1-.1-.2-.2-.3-.3-.3-.6-.6-1-.6-.3 0-.5.4-.3.6 0 .1.1.1.1.2-2.4.4-4.8 1.2-7.2 1.6-2.9.5-5.9.6-8.8.7-1.3.1-7.09-.46-8.69-.66-2.4-.4-4.61-.94-7.01-1.24v-.5c-.1-.1-.2-.2-.3-.2-.4 0-.5.3-.7.6-.2.3-.3.6-.4.8-.2.5.4.9.8.4.1-.1.2-.3.3-.4 3.1 2.3 5.2 5.4 8.1 7.7 2.8 2.3 5.8 2.9 9.4 3 3.5.1 6.8-.8 9.2-3.5 1.1-1.2 1.9-2.5 2.9-3.8s2.1-2.3 3.2-3.4c.1.2.2.4.4.5.2.1.4.1.5-.1.3-.2 0-1-.3-1.4zm-6.5 5.1c-2.7 3-5.5 4.3-9.6 4.6s-7.5-.4-10.5-3.3c-1.5-1.4-2.8-3.1-4.4-4.4 1.8.6 3.9.9 5.6 1.2 1.4.3 6.11.92 8.4.9 2.8.1 5.6-.5 8.4-1.1 1.7-.3 3.4-.7 5-1.2-1.1 1-2 2.3-2.9 3.3z" fill="#da7c87" stroke-width="none" opacity="1" stroke="none"></path></g></g><g id="svga-group-eyes-left-move" transform="matrix(1,0,0,1,0,0)"><g id="svga-group-eyes-left" transform="matrix(0.8999997000000001,0,0,0.8999997000000001,8.065023584646596,9.8000294)"><g id="svga-group-eyesback-left"><path id="SvgjsPath6888" d="M92.1 98.1s-3.5 2.7-5.9 3.2c-2.4.5-6.1.8-9.4-.1-3.2-1-4.9-2.8-4.9-2.8s1.4-2.6 3.4-3.6 4.1-2.6 8.6-1.9 7.3 3.7 8.2 5.2z" fill="#ffffff" stroke-width="none" opacity="1"></path></g><g id="svga-group-eyesiriswrapper-left" transform="matrix(1,0,0,1,0,0)"><g id="svga-group-eyesiriscontrol-left" transform="matrix(1,0,0,1,0,0)"><g id="svga-group-eyesiris-left" transform="matrix(1,0,0,1,0,0)"><path id="SvgjsPath7546" d="M82 91.5c2.7 0 4.9 2.2 4.9 4.9s-2.2 4.9-4.9 4.9-4.9-2.2-4.9-4.9 2.2-4.9 4.9-4.9z" fill="#3e4442" stroke-width="none" opacity="1"></path><path id="SvgjsPath7547" d="M82 93.8c1.4 0 2.6 1.2 2.6 2.6S83.4 99 82 99s-2.6-1.2-2.6-2.6 1.2-2.6 2.6-2.6z" fill="#000000" stroke-width="none" opacity="1"></path><path id="SvgjsPath7548" d="m81.3 94.3-.5-.5c-.2-.2-.4-.3-.7-.3s-.5.1-.7.3c-.2.2-.3.4-.3.7s.1.5.3.7l.5.5c.2.2.4.3.7.3.2 0 .5-.1.7-.3.4-.5.4-1 0-1.4zm2.5 4.4c.8 0 .8-1.3 0-1.3s-.9 1.3 0 1.3z" fill="#ffffff" stroke-width="none" opacity="1"></path></g></g></g><g id="svga-group-eyesfront-left"><path id="SvgjsPath6896" d="M70.7 98c0 6.9 4.9 12.5 11 12.5s11-5.6 11-12.5-4.9-12.5-11-12.5-11 5.6-11 12.5zm1.2.4s1.4-2.6 3.4-3.6 4.1-2.6 8.6-1.9c4.5.7 7.2 3.6 8.2 5.1 0 0-3.5 2.7-5.9 3.2-2.4.5-6.1.8-9.4-.1-3.2-.9-4.9-2.7-4.9-2.7z" fill="#f3d4cf" stroke-width="none" opacity="1" stroke="none"></path><path id="SvgjsPath6897" d="M91 96.6s-2.7-3.5-7.8-3.9c-5.1-.5-9.4 2.8-11.3 5.7 0 0-2 .5-3.3-.7 0 0 2 .1 4.3-2.1 2.1-2.1 5.6-4 9.8-3.4 4.5.5 6.4 1.8 8.3 4.4z" fill="#e4b3ab" stroke-width="none" opacity="1" stroke="none"></path><path id="SvgjsPath6898" d="M69.9 95.9c-.1-.1 0-.2.1-.2 1.2.7 2.2.7 3.3.2.4-.5.9-.9 1.4-1.3-1 0-2-.4-2.6-1.2-.1-.1.1-.2.1-.1.9.7 1.9 1.1 2.9 1 .6-.4 1.1-.7 1.8-1-.6-.3-1.1-.8-1.3-1.5 0-.1.1-.2.2-.1.4.6.9 1.1 1.6 1.4.7-.3 1.4-.5 2.1-.6-.1-.1-.2-.1-.2-.2-.2-.3-.5-.7-.5-1.1 0-.1.2-.2.3-.1.2.3.2.6.4.9.1.2.2.3.4.4 4.8-.7 10.1 1.5 12.6 6 .1.2-.2.4-.3.2-2.3-3.5-6.2-5.7-10.5-5.5-3.9.2-7.1 2.4-9.6 5.4 6.2 4.1 13.4 4 19.5-.2.1-.1.3.1.1.2-3.1 2.8-7.2 4-11.1 3.8-.1.1-.2.3-.2.4-.1.2-.1.3-.2.5-.1.1-.2.1-.2-.1 0-.3.1-.6.3-.9-.8-.1-1.6-.2-2.4-.4-.1.1-.3.2-.4.4-.1.2-.2.4-.4.6-.1.1-.2 0-.2-.1 0-.3.2-.5.3-.7.1-.1.2-.2.2-.3-.6-.2-1.3-.4-1.9-.7-.2.1-.4.2-.6.4l-.6.6c-.1.1-.2 0-.2-.1.2-.4.6-.8 1.1-1-.6-.3-1.2-.6-1.7-1-.2.1-.4.1-.6.3-.3.2-.5.4-.8.6-.1.1-.2 0-.2-.1.2-.5.8-.8 1.3-1-.4-.3-.9-.6-1.3-1l-.1.1c-.1.1-.3 0-.2-.2 0 0 0-.1.1-.1 0-.1 0-.1.1-.2.3-.6.6-1.2 1-1.8-1 .4-2.1.1-2.9-.6z" fill="#000000" stroke-width="none" opacity="1" stroke="none"></path></g></g></g><g id="svga-group-eyes-right-move" transform="matrix(1,0,0,1,0,0)"><g id="svga-group-eyes-right" transform="matrix(0.8999997000000001,0,0,0.8999997000000001,11.93503641535338,9.8000294)"><g id="svga-group-eyesback-right"><path id="SvgjsPath6889" d="M107.9 98.1s3.5 2.7 5.9 3.2c2.4.5 6.1.8 9.4-.1 3.2-1 4.9-2.8 4.9-2.8s-1.4-2.6-3.4-3.6-4.1-2.6-8.6-1.9-7.3 3.7-8.2 5.2z" fill="#ffffff" stroke-width="none" opacity="1"></path></g><g id="svga-group-eyesiriswrapper-right" transform="matrix(1,0,0,1,0,0)"><g id="svga-group-eyesiriscontrol-right" transform="matrix(1,0,0,1,0,0)"><g id="svga-group-eyesiris-right" transform="matrix(1,0,0,1,0,0)"><path id="SvgjsPath7549" d="M118 91.5c2.7 0 4.9 2.2 4.9 4.9s-2.2 4.9-4.9 4.9-4.9-2.2-4.9-4.9 2.2-4.9 4.9-4.9z" fill="#3e4442" stroke-width="none" opacity="1"></path><path id="SvgjsPath7550" d="M118 93.8c1.4 0 2.6 1.2 2.6 2.6S119.4 99 118 99s-2.6-1.2-2.6-2.6 1.2-2.6 2.6-2.6z" fill="#000000" stroke-width="none" opacity="1"></path><path id="SvgjsPath7551" d="m117.4 94.3-.5-.5c-.2-.2-.4-.3-.7-.3s-.5.1-.7.3c-.2.2-.3.4-.3.7s.1.5.3.7l.5.5c.2.2.4.3.7.3.2 0 .5-.1.7-.3.3-.5.4-1 0-1.4zm2.4 4.4c.8 0 .8-1.3 0-1.3s-.8 1.3 0 1.3z" fill="#ffffff" stroke-width="none" opacity="1"></path></g></g></g><g id="svga-group-eyesfront-right"><path id="SvgjsPath6899" d="M118.3 85.5c-6.1 0-11 5.6-11 12.5s4.9 12.5 11 12.5 11-5.6 11-12.5-5-12.5-11-12.5zm4.9 15.7c-3.2 1-7 .6-9.4.1-2.4-.5-5.9-3.2-5.9-3.2.9-1.5 3.6-4.4 8.2-5.1 4.5-.7 6.7.9 8.6 1.9 2 1 3.4 3.6 3.4 3.6s-1.7 1.7-4.9 2.7z" fill="#f3d4cf" stroke-width="none" opacity="1" stroke="none"></path><path id="SvgjsPath6902" d="M109 96.6s2.7-3.5 7.8-3.9c5.1-.5 9.4 2.8 11.3 5.7 0 0 2 .5 3.3-.7 0 0-2 .1-4.3-2.1-2.1-2.1-5.6-4-9.8-3.4-4.5.5-6.4 1.8-8.3 4.4z" fill="#e4b3ab" stroke-width="none" opacity="1" stroke="none"></path><path id="SvgjsPath6903" d="M130.1 95.9c.1-.1 0-.2-.1-.2-1.2.7-2.2.7-3.3.2-.4-.5-.9-.9-1.4-1.3 1 0 2-.4 2.6-1.2.1-.1-.1-.2-.1-.1-.9.7-1.9 1.1-2.9 1-.6-.4-1.1-.7-1.8-1 .6-.3 1.1-.8 1.3-1.5 0-.1-.1-.2-.2-.1-.4.6-.9 1.1-1.6 1.4-.7-.3-1.4-.5-2.1-.6.1-.1.2-.1.2-.2.2-.3.5-.7.5-1.1 0-.1-.2-.2-.3-.1-.2.3-.2.6-.4.9-.1.2-.2.3-.4.4-4.8-.7-10.1 1.5-12.6 6-.1.2.2.4.3.2 2.3-3.5 6.2-5.7 10.5-5.5 3.9.2 7.1 2.4 9.6 5.4-6.2 4.1-13.4 4-19.5-.2-.1-.1-.3.1-.1.2 3.1 2.8 7.2 4 11.1 3.8.1.1.2.3.2.4.1.2.1.3.2.5.1.1.2.1.2-.1 0-.3-.1-.6-.3-.9.8-.1 1.6-.2 2.4-.4.1.1.3.2.4.4.1.2.2.4.4.6.1.1.2 0 .2-.1 0-.3-.2-.5-.3-.7-.1-.1-.2-.2-.2-.3.6-.2 1.3-.4 1.9-.7.2.1.4.2.6.4l.6.6c.1.1.2 0 .2-.1-.2-.4-.6-.8-1.1-1 .6-.3 1.2-.6 1.7-1 .2.1.4.1.6.3.3.2.5.4.8.6.1.1.2 0 .2-.1-.2-.5-.8-.8-1.3-1 .4-.3.9-.6 1.3-1l.1.1c.1.1.3 0 .2-.2 0 0 0-.1-.1-.1 0-.1 0-.1-.1-.2-.3-.6-.6-1.2-1-1.8 1 .4 2.1.1 2.9-.6z" fill="#000000" stroke-width="none" opacity="1" stroke="none"></path></g></g></g><g id="svga-group-facehighlight-single"></g><g id="svga-group-eyebrows-left-move" transform="matrix(1,0,0,1,0,2)"><g id="svga-group-eyebrows-left-rotate" transform="matrix(0.9825664732332882,-0.18591160716291474,0.18591160716291474,0.9825664732332882,-14.580344674206827,16.439815537111855)"><g id="svga-group-eyebrows-left" transform="matrix(0.8999997000000001,0,0,0.8999997000000001,8.036739045447533,8.596276322809217)"><path id="SvgjsPath7843" d="M68.8 86s.1 0 0 0c.1-.1.1-.1.1-.2.3-.6.9-1 1.4-1.3.6-.4 1.3-.9 1.9-1.3h.1c1.5-1.1 4-1.3 6-.8 1.9.2 3.8.8 5 1.3.1 0 .2.1.4.1 1.6.3 3.3.6 4.8 1.2 1.5.3 3 .5 4.4 1h.1c.1-.1.4 0 .4.2.1.2.1.4 0 .7.2 0 .3.1.3.3-.1.5-.3.9-.6 1.3v.1c-.3.8-.9 1.1-1.8 1-.1 0-.2 0-.4-.1-.1.1-.2.1-.3.1-1.6-.1-3.2-.8-4.6-1.4-.9-.4-1.9-.8-2.8-1.3-1.4-.2-2.8-.6-4.2-.9-1.3-.3-2.8-.3-4-.8-.4.1-.9.1-1.3.2-.3.1-.6.2-1 .2-1 .3-2.2.8-3.2.9h-.1c-.1 0-.1.1-.2.1-.2.2-.4.4-.7.5-.1 0-.3-.1-.3-.2 0-.5.3-.7.6-.9z" fill="#2a232b" stroke-width="none" opacity="1" stroke="none"></path><path id="SvgjsPath7844" d="M89.9 85.4c1.3.8 1.5 2.8 1.3 4.2 0 .3-.5.3-.6 0-.2-.7-.2-1.4-.3-2.1-.2-.6-.4-1.1-.7-1.7-.1-.3.1-.6.3-.4zm-3.2-.9c2.1.4 3.4 2.9 3.6 4.8 0 .2-.3.2-.3.1-.2-1-.6-1.9-1.2-2.7-.6-.8-1.4-1.3-2.2-2-.1-.1 0-.3.1-.2zM81 83.1c.9.2 1.9 1 2.6 1.7.7.7 1.3 1.5 1.5 2.4 0 .2-.2.3-.3.2-.5-.8-.9-1.6-1.7-2.2-.7-.6-1.6-1-2.2-1.8-.1-.2-.1-.3.1-.3zM76.3 82c2.3 0 4.7 2.1 5.4 4.2.1.2-.2.3-.3.1-.6-.9-1.2-1.8-2.1-2.5-.9-.7-1.9-1-3-1.4-.3-.1-.3-.4 0-.4zm-5.6 2.4c2.1-2.7 6.2-1.8 7.9.8.1.2-.2.4-.3.2-1-.9-2.1-1.9-3.5-2-1.5-.2-2.7.8-3.9 1.3-.3.1-.3-.2-.2-.3z" fill="#3a353a" stroke-width="none" opacity="1" stroke="none"></path><path id="SvgjsPath7845" d="M92.1 90.3c1.6-.4 2-2.2 2-3.7 0-.3-.4-.3-.5-.1-.2.6-.4 1.3-.7 1.8-.3.5-.7.8-1.1 1 .4-1.2.2-2.6-.6-3.7.6.1 1.1.3 1.7.4.2 0 .3-.2.1-.3-2.7-1-5.6-1.6-8.3-2.4-2.4-.7-4.9-1.4-7.3-1.7-4.6-.6-7.6 2.4-10.3 5.7-.1.1-.2.2-.3.2-.4.3 0 .9.4.6 2.5-1.5 5-2.4 7.9-2.4 3.1.1 6.2 1.1 9.2 2.1 1.6.6 3.1 1.2 4.6 1.8 1 .6 2.1 1 3.2.7zm-20-6.8c1-.7 2.1-1 3.1-1.1.8.4 1.6.8 2.3 1.4.5.5.9 1.1 1.3 1.6-.1 0-.2-.1-.4-.1-3.4-.7-6.6-.4-9.5 1 1-1 2-2 3.2-2.8zm19.3 6c-.5 0-1.1-.1-1.7-.3-1.2-.4-2.4-1-3.6-1.5-.2-.1-.4-.1-.6-.2 0-.9-.3-1.8-.9-2.4-.1-.1-.3 0-.2.2.3.7.7 1.4.9 2.1-.8-.3-1.5-.6-2.3-.8-.7-1.5-2.1-3.1-3.6-3.8-.2-.1-.3.2-.2.3.6.6 1.3 1 1.9 1.7.5.5.9 1.1 1.3 1.7-1-.3-1.9-.6-2.9-.8-.2-.8-.9-1.6-1.5-2.1-.4-.4-1-.8-1.5-1.1.9 0 1.9.1 2.8.3 3.8.8 7.6 1.9 11.4 2.8.8 1.2 1 2.5.7 3.9z" fill="#1b141c" stroke-width="none" opacity="1" stroke="none"></path></g></g></g><g id="svga-group-eyebrows-right-move" transform="matrix(1,0,0,1,0,2)"><g id="svga-group-eyebrows-right-rotate" transform="matrix(0.9825664725843344,0.18591161059271843,-0.18591161059271843,0.9825664725843344,18.09723830839286,-20.73029396318161)"><g id="svga-group-eyebrows-right" transform="matrix(0.8999997000000001,0,0,0.8999997000000001,11.958318727021407,8.612983221074288)"><path id="SvgjsPath7846" d="M131.2 86s-.1 0 0 0c-.1-.1-.1-.1-.1-.2-.3-.6-.9-1-1.4-1.3-.6-.4-1.3-.9-1.9-1.3h-.1c-1.5-1.1-4-1.3-6-.8-1.9.2-3.8.8-5 1.3-.1 0-.2.1-.4.1-1.6.3-3.3.6-4.8 1.2-1.5.3-3 .5-4.4 1h-.1c-.1-.1-.4 0-.4.2-.1.2-.1.4 0 .7-.2 0-.3.1-.3.3.1.5.3.9.6 1.3v.1c.3.8.9 1.1 1.8 1 .1 0 .2 0 .4-.1.1.1.2.1.3.1 1.6-.1 3.2-.8 4.6-1.4.9-.4 1.9-.8 2.8-1.3 1.4-.2 2.8-.6 4.2-.9 1.3-.3 2.8-.3 4-.8.4.1.9.1 1.3.2.3.1.6.2 1 .2 1 .3 2.2.8 3.2.9h.1c.1 0 .1.1.2.1.2.2.4.4.7.5.1 0 .3-.1.3-.2 0-.5-.3-.7-.6-.9z" fill="#2a232b" stroke-width="none" opacity="1" stroke="none"></path><path id="SvgjsPath7847" d="M110.1 85.4c-1.3.8-1.5 2.8-1.3 4.2 0 .3.5.3.6 0 .2-.7.2-1.4.3-2.1.2-.6.4-1.1.7-1.7.1-.3-.1-.6-.3-.4zm3.2-.9c-2.1.4-3.4 2.9-3.6 4.8 0 .2.3.2.3.1.2-1 .6-1.9 1.2-2.7.6-.8 1.4-1.3 2.2-2 .1-.1 0-.3-.1-.2zm5.7-1.4c-.9.2-1.9 1-2.6 1.7-.7.7-1.3 1.5-1.5 2.4 0 .2.2.3.3.2.5-.8.9-1.6 1.7-2.2.7-.6 1.6-1 2.2-1.8.1-.2.1-.3-.1-.3zm4.7-1.1c-2.3 0-4.7 2.1-5.4 4.2-.1.2.2.3.3.1.6-.9 1.2-1.8 2.1-2.5.9-.7 1.9-1 3-1.4.3-.1.3-.4 0-.4zm5.6 2.4c-2.1-2.7-6.2-1.8-7.9.8-.1.2.2.4.3.2 1-.9 2.1-1.9 3.5-2 1.5-.2 2.7.8 4 1.3.2.1.2-.2.1-.3z" fill="#3a353a" stroke-width="none" opacity="1" stroke="none"></path><path id="SvgjsPath7848" d="M111.1 89.8c1.5-.6 3.1-1.2 4.6-1.8 2.9-1 6.1-2.1 9.2-2.1 2.9-.1 5.5.9 7.9 2.4.4.2.8-.4.4-.6-.1-.1-.2-.2-.4-.2-2.7-3.3-5.7-6.2-10.3-5.7-2.5.3-4.9 1.1-7.3 1.7-2.8.8-5.6 1.4-8.3 2.4-.2.1-.1.3.1.3.6-.1 1.1-.2 1.7-.4-.8 1-1 2.5-.6 3.7-.4-.1-.8-.4-1.1-1-.3-.6-.4-1.2-.7-1.8-.1-.2-.5-.2-.5.1.1 1.4.5 3.2 2 3.7 1.2.1 2.3-.3 3.3-.7zm19.9-3.5c-3-1.4-6.2-1.7-9.5-1-.1 0-.2.1-.4.1.4-.5.8-1.1 1.3-1.6.7-.6 1.5-.9 2.3-1.4 1.1.1 2.1.5 3.1 1.1 1.3.8 2.3 1.8 3.2 2.8zm-21.6-.7c3.8-.9 7.6-2 11.4-2.8 1-.2 1.9-.3 2.8-.3-.6.3-1.1.7-1.5 1.1-.6.5-1.3 1.3-1.5 2.1-1 .2-2 .5-2.9.8.4-.6.8-1.2 1.3-1.7.6-.6 1.3-1.1 1.9-1.7.1-.1 0-.3-.2-.3-1.5.6-2.9 2.2-3.6 3.8-.8.2-1.6.5-2.3.8.2-.7.5-1.4.9-2.1.1-.2-.1-.3-.2-.2-.6.6-.9 1.6-.9 2.4-.2.1-.4.1-.6.2-1.2.5-2.4 1.1-3.6 1.5-.6.2-1.2.4-1.7.3-.4-1.4-.2-2.7.7-3.9z" fill="#1b141c" stroke-width="none" opacity="1" stroke="none"></path></g></g></g><g id="svga-group-nose-single-move" transform="matrix(1,0,0,1,0,2)"><g id="svga-group-nose-single" transform="matrix(0.8999997000000001,0,0,0.8999997000000001,9.968501051043319,11.25306339165725)"><path id="SvgjsPath4100" d="M93.98 107.88c-1.39 1.18-4.68 5.15-3.13 7.12.23.3.53.46.9.54 1.28.3 2.25-.22 3.57.44 1.56.78 2.79 2.24 4.6 2.49 1.47.2 2.48-.6 3.54-1.48.58-.48 1.23-1.13 1.99-1.28.58-.11 1.22.22 1.78.24.43.02.75.03 1.1-.25.82-.65.62-1.92.41-2.79-.43-1.74-1.35-3.31-2.74-4.44a.191.191 0 0 0-.27.27c.94 1.16 1.8 2.4 2.23 3.85.33 1.11.73 2.35-1.04 2.44-.32.02-.73-.21-1.08-.19-.81.02-1.52.45-2.15.91-1.72 1.26-2.89 2.58-5.13 1.37-1.8-.97-3.11-2.49-5.29-2.27-.36.06-.72.11-1.08.16-1-.47-1.35-1.15-1.03-2.02.16-.68.48-1.34.78-1.96.56-1.15 1.35-2.1 2.11-3.11.04-.03-.03-.07-.07-.04z" fill="#c5796d" stroke-width="none" opacity="1" stroke="none"></path><path id="SvgjsPath4101" d="M94.51 109.69c-.22 2.72 2.11 5.18 4.89 4.87.17-.02.17-.25 0-.27-2.58-.3-4.46-1.98-4.79-4.6-.01-.07-.1-.07-.1 0z" fill="#c5796d" stroke-width="none" opacity="1" stroke="none"></path><path id="SvgjsPath4102" d="M101.91 107.08c-1.01-.42-2.13-.61-3.22-.48-.83.09-2.12.58-1.83 1.67.36 1.4 2.26 1.23 3.36 1.56 1.2.36 1.63 1.5 2.68 2.04.38.2.87.17 1.17-.15 1.65-1.73-.55-3.97-2.16-4.64z" fill="#fbe5e2" stroke-width="none" opacity="1" stroke="none"></path></g></g><g id="svga-group-hair-front" transform="matrix(1,0,0,1,0,0)"><path id="SvgjsPath9655" d="M121.5 56s-6.3 13.8-31.2 17-29.8 16-26.9 21.6c2.9 5.6 9.7 9.2 2.4 19.9s-.5 12.6 1.7 16-1.7 5.3-1.9 7.5c-.2 2.2 1.9 4.6 1.9 4.6s-4.8-3.1-3.4-9c1.4-5.8-9-8.7-6.1-16.2 2.9-7.5 5.3-9.4 1-22.3s-5.8-22.5-1.5-34.2c6.1-16.2 41.7-39.7 65.9-13.3 0 0 11.4-1.2 17.4 16 6.1 17.2 1.2 27.4-.7 29.8 0 0-.7.5-2.4-6.1-1.7-6.5-7.5-9.2-11.6-18.4S121.5 56 121.5 56z" fill="#433931" stroke-width="none" opacity="1" stroke="none"></path><path id="SvgjsPath9656" d="M70 170.9c5.4-4.9 4.1-10.9 1.7-15.8 3.3-10.5-3.9-15.3-3.9-15.3S55 144 54.4 151.6c-.3 4.1-.3 7.3.2 9.8-1.1.3-2.2.8-3 1.4-6.4 5.1-3.4 11.7-2.8 14.9s2.4 5.1 2.4 5.1c-1.4 2.3-4.3 7.4-1 16.4s12.9 13.6 12.9 13.6c-4.5-5.6-3.9-14-3.9-14s.6 2.9 2.3 8.6c1.8 5.6 8.2 10.3 8.2 10.3s-1.4-3.1 0-8.8 1.6-8.6 1.6-8.6c-.2 5.3 2.9 10.7 2.9 10.7-1-4.5 1.4-9.7 0-17.7S65 183.1 65 183.1c6.1-6 5-12.2 5-12.2zm53-121.7s.4 2.2-1.5 6.8-7.2 16-32.4 17.7-25.4 19.7-24.3 21.6 6.6 9.3 3.4 14.4c0 0 .8-5.7-3.6-11.6s-5.3-10.4-.4-17.3S77.7 72 92.7 70.5s21.4-5.5 24.3-9.7c3-4.2 4.9-8.9 6-11.6zm-5.1.4s-3.4 7.8-20.5 10.8-33.2 5.9-38.3 21c0 0-.4-6.3 8.5-14.2s32.6-9.3 38.1-10.4c5.4-1.1 10.3-5.1 12.2-7.2zm-9.5-6.4s-29-3.2-43.8 17.4c0 0 4.9-10.8 17.6-16.3s26.2-1.1 26.2-1.1zM125.5 54s1.7 11.2 7.2 18.8c5.5 7.6 8.7 16.1 8.7 16.1s0-8.5-4.9-15.7c-4.9-7.1-8.9-12-11-19.2zm1.3-2.5s11.4 10.8 15.4 27.7c0 0-.6-10.6-5.3-17.6-4.6-6.9-10.1-10.1-10.1-10.1z" fill="#3b3128" stroke-width="none" opacity="1" stroke="none"></path><path id="SvgjsPath9657" d="M119.2 54.9s-5.2 11.4-24.9 13c-19.7 1.7-25.4 4.3-29.9 8.5 0 0 6.4-9.7 18.5-11.6s26.3-3 36.3-9.9zm-2.2-8.1s-4.5 7.1-20.2 8.5-27.5 4.5-34.6 13.5c0 0 5.5-16.4 22.8-20.6s16.1.5 32-1.4zM127.9 57s2.4 5.2 5.9 10.2 6.4 10.4 7.4 14.5c0 0-.7-9.5-5.2-16.1s-8.1-8.6-8.1-8.6z" fill="#4a423a" stroke-width="none" opacity="1" stroke="none"></path><path id="SvgjsPath9658" d="M57.9 172.9c-2.2 2.4-1.2 6.4-1.2 6.4s.4-4.1 3.7-5.7c3.3-1.6 7.8-2.5 9.6-2.6 0 0 4.2-4.9 2.1-12.9 0 0-1 8.3-5.3 9.4-4.2 1-6.7 3-8.9 5.4zm8.2 18.5c-1-4.1-5.8-6.9-7.6-7.9 1.7 0 3 .1 3 .1s-2.4-.1-6.4-1.9c-4-1.7-5.7-7.8-5.4-11 .2-2.3 2.3-4.8 3.6-5.9 2.4 2.4 5.7 3.6 5.7 3.6-5-6-2.8-11.8-1.6-14.2 4.4 3.6 8 3.6 8 3.6-14.2-8.4-12-22.7-12-22.7-1.5 2.5-4.5 9.9 1.1 16.4-3.2 1.3-4.8 7.4-2.9 11-1.5 1-3.7 3.1-4.6 7.5-1.5 7 2.9 12.2 4.2 12.8 0 0-3.3 4.3-.2 16.2 3 11.9 12.1 13.8 12.1 13.8-6-3.8-9.9-12.9-10.5-18.7-.5-4.7 1.3-9.2 2.1-10.8 1.1.1 2.3.1 3.4.1.9 1 3.5 4.4 4.9 9.3 1.6 6 .5 9.9 1.2 14.2.7 4.2 4.4 9.1 4.4 9.1s-3.1-6.5-2.9-11.5c0-4.9 1.6-8.1.4-13.1zm5.1-.9c-2.2-5.2-6.5-6.1-6.5-6.1 4.5 3.7 5.7 7.8 6 11.9.3 4.1 2 8.4 2 8.4-.3-3.1.8-9.1-1.5-14.2zm-.1-38.1c.8-3.7-.7-9.5-2.6-11.8 0 0 3.5 7.5-.8 17.6 0 0 2.5-2.1 3.4-5.8zm-8.1-8.3s-7.2-7.4-10.6-20.9c0 0-2.1 16.7 10.6 20.9z" fill="#332920" stroke-width="none" opacity="1" stroke="none"></path></g><g id="svga-group-glasses-single-move" transform="matrix(1,0,0,1,0,0)"><g id="svga-group-glasses-single" transform="matrix(1,0,0,1,0,0)"></g></g></g></g></g><rect id="svga-credit-rect" width="200" height="15" x="0" y="185" fill="#ecf0f1" opacity="0.5" style="display: none;"></rect><text id="svga-credit-text" font-family="Avenir Next, Roboto, Helvetica, Arial, sans-serif" font-size="10px" text-anchor="start" font-weight="400" size="10px" anchor="start" weight="400" fill="#333333" x="33.40447998046875" y="182.60824704170227" style="display: none;"><tspan id="SvgjsTspan2904" dy="13" x="33.40447998046875">Created on AvatarMaker.com</tspan></text></g></svg>